<svg width="48" height="48" viewBox="0 0 48 48" fill="none" xmlns="http://www.w3.org/2000/svg">
<rect width="48" height="48" rx="12" fill="#1B9849" fill-opacity="0.1"/>
<path d="M19 28.3C21.2 28.3 23 26.47 23 24.25C23 23.09 22.43 21.99 21.29 21.06C20.15 20.13 19.29 18.75 19 17.3C18.71 18.75 17.86 20.14 16.71 21.06C15.56 21.98 15 23.1 15 24.25C15 26.47 16.8 28.3 19 28.3Z" stroke="#1B9849" stroke-width="2" stroke-linecap="round" stroke-linejoin="round"/>
<path d="M24.56 18.6C25.2477 17.5011 25.7353 16.2891 26 15.02C26.5 17.52 28 19.92 30 21.52C32 23.12 33 25.02 33 27.02C33.0057 28.4023 32.6008 29.7552 31.8368 30.9071C31.0727 32.059 29.9838 32.9582 28.7081 33.4905C27.4324 34.0229 26.0274 34.1644 24.6711 33.8973C23.3149 33.6302 22.0685 32.9664 21.09 31.99" stroke="#1B9849" stroke-width="2" stroke-linecap="round" stroke-linejoin="round"/>
</svg>
