<svg width="48" height="48" viewBox="0 0 48 48" fill="none" xmlns="http://www.w3.org/2000/svg">
<rect width="48" height="48" rx="12" fill="#1B9849" fill-opacity="0.1"/>
<path d="M16 26.899C15.257 26.1399 14.6965 25.2217 14.361 24.214C14.0255 23.2062 13.9237 22.1353 14.0633 21.0823C14.203 20.0294 14.5804 19.022 15.1671 18.1366C15.7537 17.2511 16.5342 16.5107 17.4493 15.9716C18.3645 15.4324 19.3903 15.1086 20.4491 15.0246C21.508 14.9406 22.572 15.0987 23.5607 15.4869C24.5494 15.8751 25.4368 16.4831 26.1557 17.2651C26.8746 18.047 27.4061 18.9823 27.71 20H29.5C30.4655 19.9999 31.4054 20.3103 32.181 20.8855C32.9565 21.4606 33.5265 22.2699 33.8067 23.1938C34.087 24.1178 34.0627 25.1074 33.7373 26.0164C33.412 26.9254 32.8028 27.7057 32 28.242" stroke="#1B9849" stroke-width="2" stroke-linecap="round" stroke-linejoin="round"/>
<path d="M28 26V32" stroke="#1B9849" stroke-width="2" stroke-linecap="round" stroke-linejoin="round"/>
<path d="M20 26V32" stroke="#1B9849" stroke-width="2" stroke-linecap="round" stroke-linejoin="round"/>
<path d="M24 28V34" stroke="#1B9849" stroke-width="2" stroke-linecap="round" stroke-linejoin="round"/>
</svg>
