<svg width="32" height="33" viewBox="0 0 32 33" fill="none" xmlns="http://www.w3.org/2000/svg">
<rect y="0.5" width="32" height="32" rx="16" fill="white" fill-opacity="0.24"/>
<path d="M16 10.5C14.7144 10.5 13.4577 10.8812 12.3888 11.5954C11.3199 12.3097 10.4868 13.3248 9.99479 14.5126C9.50282 15.7003 9.37409 17.0072 9.6249 18.2681C9.8757 19.529 10.4948 20.6872 11.4038 21.5962C12.3128 22.5052 13.471 23.1243 14.7319 23.3751C15.9928 23.6259 17.2997 23.4972 18.4874 23.0052C19.6752 22.5132 20.6903 21.6801 21.4046 20.6112C22.1188 19.5423 22.5 18.2856 22.5 17C22.4982 15.2767 21.8128 13.6244 20.5942 12.4058C19.3756 11.1872 17.7234 10.5018 16 10.5ZM15.5 14C15.5 13.8674 15.5527 13.7402 15.6464 13.6464C15.7402 13.5527 15.8674 13.5 16 13.5C16.1326 13.5 16.2598 13.5527 16.3536 13.6464C16.4473 13.7402 16.5 13.8674 16.5 14V17.5C16.5 17.6326 16.4473 17.7598 16.3536 17.8536C16.2598 17.9473 16.1326 18 16 18C15.8674 18 15.7402 17.9473 15.6464 17.8536C15.5527 17.7598 15.5 17.6326 15.5 17.5V14ZM16 20.5C15.8517 20.5 15.7067 20.456 15.5833 20.3736C15.46 20.2912 15.3639 20.1741 15.3071 20.037C15.2503 19.9 15.2355 19.7492 15.2644 19.6037C15.2934 19.4582 15.3648 19.3246 15.4697 19.2197C15.5746 19.1148 15.7082 19.0433 15.8537 19.0144C15.9992 18.9855 16.15 19.0003 16.287 19.0571C16.4241 19.1139 16.5412 19.21 16.6236 19.3333C16.706 19.4567 16.75 19.6017 16.75 19.75C16.75 19.9489 16.671 20.1397 16.5303 20.2803C16.3897 20.421 16.1989 20.5 16 20.5Z" fill="white"/>
</svg>
