<svg width="33" height="33" viewBox="0 0 33 33" fill="none" xmlns="http://www.w3.org/2000/svg">
<rect x="0.22168" y="0.5" width="32" height="32" rx="16" fill="white" fill-opacity="0.24"/>
<path fill-rule="evenodd" clip-rule="evenodd" d="M25.7459 16.5001C25.7459 21.76 21.4819 26.0239 16.2221 26.0239C10.9622 26.0239 6.69824 21.76 6.69824 16.5001C6.69824 11.2403 10.9622 6.97632 16.2221 6.97632C21.4819 6.97632 25.7459 11.2403 25.7459 16.5001ZM20.0605 13.6141C20.3394 13.893 20.3394 14.3453 20.0605 14.6243L15.2986 19.3862C15.0196 19.6651 14.5673 19.6651 14.2884 19.3862L12.3836 17.4814C12.1047 17.2024 12.1047 16.7502 12.3836 16.4712C12.6626 16.1923 13.1148 16.1923 13.3938 16.4712L14.7935 17.8709L16.9219 15.7425L19.0503 13.6141C19.3293 13.3352 19.7815 13.3352 20.0605 13.6141Z" fill="white"/>
</svg>
