<svg width="48" height="48" viewBox="0 0 48 48" fill="none" xmlns="http://www.w3.org/2000/svg">
<rect width="48" height="48" rx="12" fill="#1B9849" fill-opacity="0.1"/>
<path d="M24.8 31.6C25.0535 31.7901 25.3486 31.9173 25.6609 31.971C25.9732 32.0248 26.2938 32.0035 26.5963 31.909C26.8988 31.8145 27.1745 31.6495 27.4007 31.4276C27.6269 31.2056 27.7972 30.9331 27.8974 30.6325C27.9976 30.3318 28.0249 30.0117 27.9771 29.6984C27.9293 29.3851 27.8078 29.0877 27.6225 28.8306C27.4372 28.5735 27.1935 28.3641 26.9114 28.2197C26.6293 28.0753 26.3169 28 26 28H14" stroke="#1B9849" stroke-width="2" stroke-linecap="round" stroke-linejoin="round"/>
<path d="M29.5 20C29.7557 19.6591 30.0943 19.3892 30.4836 19.2159C30.8729 19.0427 31.3001 18.9718 31.7245 19.0101C32.1489 19.0484 32.5565 19.1945 32.9086 19.4346C33.2606 19.6747 33.5455 20.0008 33.7361 20.382C33.9266 20.7631 34.0166 21.1867 33.9975 21.6124C33.9783 22.0381 33.8507 22.4518 33.6266 22.8143C33.4026 23.1768 33.0896 23.476 32.7174 23.6836C32.3452 23.8911 31.9261 24 31.5 24H14" stroke="#1B9849" stroke-width="2" stroke-linecap="round" stroke-linejoin="round"/>
<path d="M21.8 16.4C22.0535 16.2099 22.3486 16.0827 22.6609 16.029C22.9732 15.9752 23.2938 15.9965 23.5963 16.091C23.8988 16.1855 24.1745 16.3505 24.4007 16.5724C24.6269 16.7944 24.7972 17.0669 24.8974 17.3675C24.9976 17.6682 25.0249 17.9883 24.9771 18.3016C24.9293 18.6149 24.8078 18.9123 24.6225 19.1694C24.4372 19.4265 24.1935 19.6359 23.9114 19.7803C23.6293 19.9247 23.3169 20 23 20H14" stroke="#1B9849" stroke-width="2" stroke-linecap="round" stroke-linejoin="round"/>
</svg>
